<svg width="85" height="84" viewBox="0 0 85 84" fill="none" xmlns="http://www.w3.org/2000/svg">
<g clip-path="url(#clip0_1_87)">
<path d="M29.3504 25.69L7.02041 28.9275L6.62491 29.008C6.0262 29.1669 5.4804 29.4819 5.04324 29.9208C4.60608 30.3597 4.29323 30.9067 4.13663 31.506C3.98004 32.1054 3.98531 32.7355 4.15191 33.3322C4.31851 33.9288 4.64047 34.4705 5.08491 34.902L21.2619 50.6485L17.4469 72.891L17.4014 73.276C17.3648 73.8952 17.4933 74.5131 17.774 75.0663C18.0546 75.6195 18.4773 76.0881 18.9986 76.4243C19.5199 76.7605 20.1212 76.952 20.7409 76.9794C21.3606 77.0067 21.9765 76.8689 22.5254 76.58L42.4964 66.08L62.4219 76.58L62.7719 76.741C63.3496 76.9686 63.9775 77.0383 64.5911 76.9432C65.2046 76.848 65.7818 76.5913 66.2635 76.1994C66.7451 75.8076 67.1139 75.2946 67.3318 74.7132C67.5498 74.1318 67.6092 73.5029 67.5039 72.891L63.6854 50.6485L79.8694 34.8985L80.1424 34.601C80.5324 34.1207 80.7881 33.5456 80.8834 32.9343C80.9788 32.323 80.9104 31.6973 80.6852 31.1211C80.4601 30.5448 80.0862 30.0385 79.6016 29.6538C79.1171 29.2691 78.5392 29.0197 77.9269 28.931L55.5969 25.69L45.6149 5.46C45.3261 4.87387 44.8789 4.3803 44.3241 4.03517C43.7692 3.69003 43.1288 3.50711 42.4754 3.50711C41.822 3.50711 41.1816 3.69003 40.6268 4.03517C40.0719 4.3803 39.6248 4.87387 39.3359 5.46L29.3504 25.69Z" fill="#FACC15"/>
</g>
<defs>
<clipPath id="clip0_1_87">
<rect width="84" height="84" fill="white" transform="translate(0.5)"/>
</clipPath>
</defs>
</svg>
